<svg width="0" height="0" class="hidden">
  <symbol fill="none" xmlns="http://www.w3.org/2000/svg" viewBox="0 0 81 28" id="logo">
    <path fill-rule="evenodd" clip-rule="evenodd" d="M18.162.248h-.13v4.024h4.828v-.194h-4.698V.248zm23.872 3.83v.194h4.83v-.194h-4.83zM10.866 18.976a5.454 5.454 0 01-4.396 2.167c-3.746 0-6.47-2.91-6.47-7.646 0-4.582 2.724-7.708 6.47-7.708 1.857 0 3.343.805 4.334 2.136V0h4.674v20.772h-4.612v-1.796zm-5.944-5.293c0 2.724 1.176 3.931 3.034 3.931 1.98 0 3.033-1.486 3.033-4.024v-.34c0-2.54-1.021-3.932-3.033-3.932-1.827 0-3.034 1.33-3.034 4.055v.31zM18.093 6.16H22.8v14.612h-4.706V6.16zm20.378 5.14c0 3.374-2.631 5.51-6.748 5.51-.867 0-1.672-.093-2.415-.31-.65.063-1.083.372-1.083.775 0 .495.65.835 1.702.835h3.808c4.488 0 6.903 1.641 6.903 4.644 0 3.343-2.972 5.2-8.39 5.2-5.262 0-7.924-1.393-7.924-4.024 0-1.424.929-2.476 2.631-3.095-1.424-.372-2.26-1.3-2.26-2.539 0-1.238.93-2.229 2.57-2.755-1.393-.96-2.198-2.445-2.198-4.18 0-3.188 2.879-5.54 6.841-5.54 2.477 0 4.489.96 5.603 2.507.527-1.362 1.517-2.167 3.003-2.167v4.086c-.65-.278-1.486-.31-2.136.186.062.279.093.557.093.867zM36.8 23.465c0-1.084-1.021-1.548-3.56-1.548h-2.847c-1.424.124-2.384.681-2.384 1.64 0 1.022 1.424 1.61 4.334 1.61 2.879 0 4.457-.619 4.457-1.702zm-7.46-12.042c0 1.455.96 2.383 2.477 2.383 1.547 0 2.507-.897 2.507-2.414v-.155c0-1.455-1.022-2.445-2.508-2.445-1.455 0-2.476 1.021-2.476 2.445v.186zM42.096 6.16h4.706v14.612h-4.706V6.16zm15.456 11.175v3.437h-3.467c-3.034-.217-3.622-1.61-3.684-4.21v-7.09h-1.95V6.16h1.95V3.312l4.613-2.26V6.16h2.631v3.313h-2.662v6.903c0 .65.31.928.96.96h1.61zm14.308-1.052c0 2.879-2.631 4.953-6.191 4.953-3.189 0-5.48-1.176-7.027-2.848l2.879-2.229c.96 1.115 2.383 1.858 3.931 1.858 1.207 0 1.95-.465 1.95-1.3 0-.81-1.181-1.065-2.842-1.425l-.563-.123c-2.445-.527-5.139-1.548-5.139-4.551 0-2.786 2.6-4.83 6.068-4.83 3.095 0 5.324 1.146 6.81 2.88 0 .062-2.786 2.105-2.786 2.105-.99-1.115-2.322-1.796-3.776-1.796-1.177 0-1.889.465-1.889 1.239 0 .879.801 1.045 2.927 1.488l.138.028c2.507.496 5.51 1.455 5.51 4.551z" fill="#1E266D"></path>
    <path d="M78.46 20.408a2.512 2.512 0 100-5.024 2.512 2.512 0 000 5.024zm0-10.049a2.512 2.512 0 100-5.025 2.512 2.512 0 000 5.025z" fill="#FF2E6A"></path>
  </symbol>
</svg>