<?xml version="1.0" encoding="UTF-8"?>
<svg id="logo" viewBox="0 0 81 28" xmlns="http://www.w3.org/2000/svg">
<path d="m18.162 0.24765h-0.1308v4.0243h4.8291v-0.19437h-4.6983v-3.8299zm23.872 3.8299v0.19437h4.8292v-0.19437h-4.8292zm-31.169 14.899c-1.0215 1.3311-2.5693 2.1669-4.3958 2.1669-3.7457 0-6.4698-2.9099-6.4698-7.6462 0-4.5815 2.7242-7.7081 6.4698-7.7081 1.8574 0 3.3433 0.80486 4.3338 2.136v-7.9248h4.6744v20.772h-4.6125v-1.7954zm-5.9436-5.2936c0 2.7242 1.1763 3.9315 3.0337 3.9315 1.9812 0 3.0338-1.4859 3.0338-4.0243v-0.3405c0-2.5385-1.0216-3.9315-3.0338-3.9315-1.8264 0-3.0337 1.3311-3.0337 4.0553v0.3095zm13.171-7.5223h4.7053v14.611h-4.7053v-14.611zm20.378 5.1387c0 3.3742-2.6313 5.5102-6.7485 5.5102-0.8668 0-1.6716-0.0928-2.4146-0.3095-0.65 0.0619-1.0834 0.3714-1.0834 0.7739 0 0.4953 0.65 0.8358 1.7026 0.8358h3.8076c4.4886 0 6.9032 1.6407 6.9032 4.6434 0 3.3433-2.9718 5.2007-8.3891 5.2007-5.2626 0-7.9248-1.3931-7.9248-4.0243 0-1.424 0.9287-2.4765 2.6313-3.0957-1.424-0.3714-2.2598-1.3001-2.2598-2.5384 0-1.2382 0.9286-2.2288 2.5693-2.7551-1.393-0.9596-2.1979-2.4455-2.1979-4.1791 0-3.1885 2.879-5.5411 6.8414-5.5411 2.4765 0 4.4886 0.95964 5.603 2.5074 0.5263-1.3621 1.5169-2.1669 3.0028-2.1669v4.0862c-0.6501-0.2786-1.4859-0.30956-2.136 0.1857 0.0619 0.2786 0.0929 0.5573 0.0929 0.8668zm-1.6717 12.166c0-1.0835-1.0215-1.5478-3.5599-1.5478h-2.848c-1.424 0.1238-2.3836 0.681-2.3836 1.6407 0 1.0215 1.424 1.6097 4.3338 1.6097 2.879 0 4.4577-0.6191 4.4577-1.7026zm-7.4604-12.042c0 1.455 0.9596 2.3837 2.4765 2.3837 1.5478 0 2.5074-0.8978 2.5074-2.4146v-0.1548c0-1.4549-1.0215-2.4455-2.5074-2.4455-1.455 0-2.4765 1.0216-2.4765 2.4455v0.1857zm12.757-5.2625h4.7054v14.611h-4.7054v-14.611zm15.456 11.175v3.4361h-3.4671c-3.0337-0.2167-3.6219-1.6097-3.6838-4.21v-7.089h-1.9502v-3.3123h1.9502v-2.848l4.6125-2.2598v5.1078h2.6313v3.3123h-2.6623v6.9032c0 0.6501 0.3096 0.9287 0.9597 0.9597h1.6097zm14.308-1.0525c0 2.8789-2.6313 4.953-6.1912 4.953-3.1885 0-5.4793-1.1764-7.0271-2.848l2.8789-2.2289c0.9597 1.1145 2.3837 1.8574 3.9315 1.8574 1.2073 0 1.9502-0.4643 1.9502-1.3001 0-0.809-1.1813-1.0649-2.8419-1.4247-0.1823-0.0395-0.3703-0.0803-0.5633-0.1232-2.4455-0.5262-5.1387-1.5478-5.1387-4.5505 0-2.7861 2.6003-4.8292 6.0674-4.8292 3.0956 0 5.3245 1.1454 6.8104 2.8789 0 0.06191-2.7861 2.1051-2.7861 2.1051-0.9906-1.1145-2.3217-1.7955-3.7766-1.7955-1.1764 0-1.8884 0.46434-1.8884 1.2382 0 0.879 0.8012 1.0458 2.9265 1.4881l0.1382 0.0288c2.5075 0.4953 5.5102 1.4549 5.5102 4.5506z" clip-rule="evenodd" fill="#1E266D" fill-rule="evenodd"/>
<path d="m78.46 20.408c1.3876 0 2.5124-1.1248 2.5124-2.5124s-1.1248-2.5125-2.5124-2.5125-2.5124 1.1249-2.5124 2.5125 1.1248 2.5124 2.5124 2.5124z" fill="#FF2E6A"/>
<path d="m78.46 10.359c1.3876 0 2.5124-1.1248 2.5124-2.5124s-1.1248-2.5124-2.5124-2.5124-2.5124 1.1248-2.5124 2.5124 1.1248 2.5124 2.5124 2.5124z" fill="#FF2E6A"/>
</svg>
