<?xml version="1.0" encoding="UTF-8"?>
<svg width="26.3" height="15.4" id="contact-us" viewBox="0 0 29 29" xmlns="http://www.w3.org/2000/svg">
<path d="m25.654 10.759-5.9453 3.4703 7.96 5.7362v-12.716c0 1.4392-0.7721 2.7838-2.0147 3.5091z"/>
<path d="m8.3903 9.9763 7.7133 4.5022c0.2076 0.1213 0.4448 0.1854 0.6855 0.1854h0.0097c0.2407 0 0.4779-0.0641 0.685-0.1851l1.1551-0.6743c0.0026-0.0016 0.0052-3e-3 0.0078-0.0045l6.5509-3.8237c0.9655-0.56353 1.5651-1.6081 1.5651-2.7263v-0.45312h-19.938v0.45312c0 1.1182 0.59959 2.1627 1.5651 2.7263z"/>
<path d="m13.879 14.228-5.945-3.4709c-1.2416-0.725-2.0164-2.0663-2.0164-3.5072v4.9844h-2.5158c-0.25046 0-0.45313 0.2029-0.45313 0.4531s0.20267 0.4531 0.45313 0.4531h5.6062c0.74766 0 1.3594 0.6117 1.3594 1.3594 0 0.7476-0.61171 1.3594-1.3594 1.3594h-6.0593c-0.25046 0-0.45312 0.2029-0.45312 0.4531s0.20266 0.4531 0.45312 0.4531h2.969v3.1991l7.9614-5.7366z"/>
<path d="m17.941 15.261c-0.3456 0.202-0.7407 0.3089-1.1421 0.3089h-0.0062c-0.4049 0-0.8-0.1069-1.1461-0.3091l-0.9109-0.5317-8.8166 6.3537v0.6669c0 0.2502 0.20266 0.4531 0.45312 0.4531h20.844c0.2505 0 0.4531-0.2029 0.4531-0.4531v-0.6669l-8.8168-6.3537-0.9112 0.5319z">
<path d="m9.459 14.5c0-0.2502-0.20266-0.4531-0.45312-0.4531h-7.2217c-0.25046 0-0.45313 0.2029-0.45313 0.4531s0.20267 0.4531 0.45313 0.4531h7.2217c0.25046 0 0.45312-0.2029 0.45312-0.4531z"/>
</svg>
